REM DIRINDEX 1\3,1\2\4,1\2\5,1\2\6
REM DIRNAME cjc137,folder01,folder02,folder03,folder04,folder05
TITLE ""
FILE "014.mp3" MP3
  TRACK 01 AUDIO
    TITLE "4:cjc137_0549"
    INDEX 01 00:00:00
  TRACK 02 AUDIO
    TITLE "0:"
    INDEX 01 00:01:13
  TRACK 03 AUDIO
    TITLE "6:cjc137_0550"
    INDEX 01 00:01:24
  TRACK 04 AUDIO
    TITLE "0:"
    INDEX 01 00:02:26
  TRACK 05 AUDIO
    TITLE "5:cjc137_0551"
    INDEX 01 00:02:34
  TRACK 06 AUDIO
    TITLE "0:"
    INDEX 01 00:03:49
  TRACK 07 AUDIO
    TITLE "4:cjc137_0552"
    INDEX 01 00:04:56
  TRACK 08 AUDIO
    TITLE "0:"
    INDEX 01 00:05:52
  TRACK 09 AUDIO
    TITLE "6:cjc137_0553"
    INDEX 01 00:05:65
  TRACK 10 AUDIO
    TITLE "0:"
    INDEX 01 00:07:03
  TRACK 11 AUDIO
    TITLE "5:cjc137_0554"
    INDEX 01 00:07:15
  TRACK 12 AUDIO
    TITLE "0:"
    INDEX 01 00:08:13
  TRACK 13 AUDIO
    TITLE "4:cjc137_0555"
    INDEX 01 00:09:20
  TRACK 14 AUDIO
    TITLE "0:"
    INDEX 01 00:10:25
  TRACK 15 AUDIO
    TITLE "6:cjc137_0556"
    INDEX 01 00:10:39
  TRACK 16 AUDIO
    TITLE "0:"
    INDEX 01 00:11:40
  TRACK 17 AUDIO
    TITLE "5:cjc137_0557"
    INDEX 01 00:11:50
  TRACK 18 AUDIO
    TITLE "0:"
    INDEX 01 00:12:56
  TRACK 19 AUDIO
    TITLE "4:cjc137_0558"
    INDEX 01 00:13:63
  TRACK 20 AUDIO
    TITLE "0:"
    INDEX 01 00:15:19
  TRACK 21 AUDIO
    TITLE "6:cjc137_0559"
    INDEX 01 00:15:30
  TRACK 22 AUDIO
    TITLE "0:"
    INDEX 01 00:16:67
  TRACK 23 AUDIO
    TITLE "5:cjc137_0560"
    INDEX 01 00:17:02
  TRACK 24 AUDIO
    TITLE "0:"
    INDEX 01 00:18:35
  TRACK 25 AUDIO
    TITLE "4:cjc137_0561"
    INDEX 01 00:19:40
  TRACK 26 AUDIO
    TITLE "0:"
    INDEX 01 00:20:59
  TRACK 27 AUDIO
    TITLE "6:cjc137_0562"
    INDEX 01 00:20:69
  TRACK 28 AUDIO
    TITLE "0:"
    INDEX 01 00:22:46
  TRACK 29 AUDIO
    TITLE "5:cjc137_0563"
    INDEX 01 00:22:56
  TRACK 30 AUDIO
    TITLE "0:"
    INDEX 01 00:23:73
  TRACK 31 AUDIO
    TITLE "4:cjc137_0564"
    INDEX 01 00:25:07
  TRACK 32 AUDIO
    TITLE "0:"
    INDEX 01 00:26:01
  TRACK 33 AUDIO
    TITLE "6:cjc137_0565"
    INDEX 01 00:26:17
  TRACK 34 AUDIO
    TITLE "0:"
    INDEX 01 00:27:32
  TRACK 35 AUDIO
    TITLE "5:cjc137_0566"
    INDEX 01 00:27:41
  TRACK 36 AUDIO
    TITLE "0:"
    INDEX 01 00:28:37
  TRACK 37 AUDIO
    TITLE "4:cjc137_0567"
    INDEX 01 00:29:46
  TRACK 38 AUDIO
    TITLE "0:"
    INDEX 01 00:30:46
  TRACK 39 AUDIO
    TITLE "6:cjc137_0568"
    INDEX 01 00:30:63
  TRACK 40 AUDIO
    TITLE "0:"
    INDEX 01 00:31:49
  TRACK 41 AUDIO
    TITLE "5:cjc137_0569"
    INDEX 01 00:31:59
  TRACK 42 AUDIO
    TITLE "0:"
    INDEX 01 00:32:58
  TRACK 43 AUDIO
    TITLE "4:cjc137_0570"
    INDEX 01 00:33:71
  TRACK 44 AUDIO
    TITLE "0:"
    INDEX 01 00:34:73
  TRACK 45 AUDIO
    TITLE "6:cjc137_0571"
    INDEX 01 00:35:15
  TRACK 46 AUDIO
    TITLE "0:"
    INDEX 01 00:35:74
  TRACK 47 AUDIO
    TITLE "5:cjc137_0572"
    INDEX 01 00:36:09
  TRACK 48 AUDIO
    TITLE "0:"
    INDEX 01 00:37:12
  TRACK 49 AUDIO
    TITLE "4:cjc137_0573"
    INDEX 01 00:38:22
  TRACK 50 AUDIO
    TITLE "0:"
    INDEX 01 00:39:25
  TRACK 51 AUDIO
    TITLE "6:cjc137_0574"
    INDEX 01 00:39:39
  TRACK 52 AUDIO
    TITLE "0:"
    INDEX 01 00:40:24
  TRACK 53 AUDIO
    TITLE "5:cjc137_0575"
    INDEX 01 00:40:34
  TRACK 54 AUDIO
    TITLE "0:"
    INDEX 01 00:41:40
  TRACK 55 AUDIO
    TITLE "4:cjc137_0576"
    INDEX 01 00:42:47
  TRACK 56 AUDIO
    TITLE "0:"
    INDEX 01 00:43:52
  TRACK 57 AUDIO
    TITLE "6:cjc137_0577"
    INDEX 01 00:43:64
  TRACK 58 AUDIO
    TITLE "0:"
    INDEX 01 00:44:58
  TRACK 59 AUDIO
    TITLE "5:cjc137_0578"
    INDEX 01 00:44:67
  TRACK 60 AUDIO
    TITLE "0:"
    INDEX 01 00:45:73
  TRACK 61 AUDIO
    TITLE "4:cjc137_0579"
    INDEX 01 00:47:07
  TRACK 62 AUDIO
    TITLE "0:"
    INDEX 01 00:48:10
  TRACK 63 AUDIO
    TITLE "6:cjc137_0580"
    INDEX 01 00:48:26
  TRACK 64 AUDIO
    TITLE "0:"
    INDEX 01 00:49:16
  TRACK 65 AUDIO
    TITLE "5:cjc137_0581"
    INDEX 01 00:49:27
  TRACK 66 AUDIO
    TITLE "0:"
    INDEX 01 00:50:31
  TRACK 67 AUDIO
    TITLE "4:cjc137_0582"
    INDEX 01 00:51:38
  TRACK 68 AUDIO
    TITLE "0:"
    INDEX 01 00:52:37
  TRACK 69 AUDIO
    TITLE "6:cjc137_0583"
    INDEX 01 00:52:47
  TRACK 70 AUDIO
    TITLE "0:"
    INDEX 01 00:53:49
  TRACK 71 AUDIO
    TITLE "5:cjc137_0584"
    INDEX 01 00:53:58
  TRACK 72 AUDIO
    TITLE "0:"
    INDEX 01 00:54:58
  TRACK 73 AUDIO
    TITLE "4:cjc137_0585"
    INDEX 01 00:55:63
  TRACK 74 AUDIO
    TITLE "0:"
    INDEX 01 00:56:65
  TRACK 75 AUDIO
    TITLE "6:cjc137_0586"
    INDEX 01 00:57:01
  TRACK 76 AUDIO
    TITLE "0:"
    INDEX 01 00:58:22
  TRACK 77 AUDIO
    TITLE "5:cjc137_0587"
    INDEX 01 00:58:30
  TRACK 78 AUDIO
    TITLE "0:"
    INDEX 01 00:59:34
  TRACK 79 AUDIO
    TITLE "4:cjc137_0588"
    INDEX 01 01:00:41
  TRACK 80 AUDIO
    TITLE "0:"
    INDEX 01 01:01:40
  TRACK 81 AUDIO
    TITLE "6:cjc137_0589"
    INDEX 01 01:01:58
  TRACK 82 AUDIO
    TITLE "0:"
    INDEX 01 01:02:55
  TRACK 83 AUDIO
    TITLE "5:cjc137_0590"
    INDEX 01 01:02:65
  TRACK 84 AUDIO
    TITLE "0:"
    INDEX 01 01:03:67
